<svg xmlns="http://www.w3.org/2000/svg" viewBox="0 0 25 24" width="25" height="24">
	<style>
		tspan { white-space:pre }
		.shp0 { opacity: 0;fill: #000000 } 
		.shp1 { fill: none;stroke: #688cbc;stroke-linecap:round;stroke-linejoin:round;stroke-width: 2 } 
		.shp2 { fill: #688cbc } 
	</style>
	<g id="Faticons">
		<g id="Edit 3">
			<path id="Rectangle" class="shp0" d="M1 0L25 0L25 24L1 24L1 0Z" />
			<g id="Group">
				<path id="Stroke 1" class="shp1" d="M21 13.07C21 18.69 19.93 21 13 21C6.07 21 5 18.07 5 13.07C5 8.07 6 6 12 6" />
				<path id="Stroke 3" class="shp1" d="M15 11C13.95 9.95 13.22 8.78 16 6C18.78 3.22 19.95 3.95 21 5C22.05 6.05 22.78 7.22 20 10C17.22 12.78 16.05 12.05 15 11Z" />
				<path id="Fill 5" class="shp2" d="M12.71 14.27C12.32 14.66 11.68 14.66 11.29 14.27C10.9 13.88 10.9 13.25 11.29 12.86C11.68 12.47 12.32 12.47 12.71 12.86C13.1 13.25 13.1 13.88 12.71 14.27" />
			</g>
		</g>
	</g>
</svg>