<svg xmlns="http://www.w3.org/2000/svg" viewBox="0 0 24 25" width="24" height="25">
	<style>
		tspan { white-space:pre }
		.shp0 { opacity: 0;fill: #000000 } 
		.shp1 { fill: none;stroke: #333333;stroke-linecap:round;stroke-linejoin:round;stroke-width: 2 } 
	</style>
	<g id="Faticons">
		<g id="Eye">
			<path id="Rectangle" class="shp0" d="M0 1L24 1L24 25L0 25L0 1Z" />
			<path id="Stroke 1" class="shp1" d="M12 19C4.2 19 3 13 3 13C3 13 4.2 7 12 7C19.8 7 21 13 21 13C21 13 19.8 19 12 19Z" />
			<path id="Stroke 3" class="shp1" d="M14 13C14 14.1 13.1 15 12 15C10.9 15 10 14.1 10 13C10 11.9 10.9 11 12 11C13.1 11 14 11.9 14 13Z" />
		</g>
	</g>
</svg>