<svg xmlns="http://www.w3.org/2000/svg" viewBox="0 0 25 24" width="25" height="24">
	<style>
		tspan { white-space:pre }
		.shp0 { opacity: 0;fill: #000000 } 
		.shp1 { fill: none;stroke: #808080;stroke-linecap:round;stroke-linejoin:round;stroke-width: 2 } 
	</style>
	<g id="Faticons">
		<g id="Inbox">
			<path id="Rectangle" class="shp0" d="M1 0L25 0L25 24L1 24L1 0Z" />
			<path id="Stroke 1" class="shp1" d="M10.01 14.03C10.07 15.34 11.38 16 13 16C14.62 16 15.93 15.34 15.99 14.03C21 14 21 15.18 21 17C21 19 21 20 13 20C5 20 5 19 5 17C5 15.18 5 14 10.01 14.03Z" />
			<path id="Stroke 3" class="shp1" d="M5 17C5 5.08 7 4 13 4C19 4 21 5.08 21 17" />
		</g>
	</g>
</svg>